# 3ds Max Wavefront OBJ Exporter v0.97b - (c)2007 guruware
# 创建的文件:23.10.2017 08:57:07

#
# object 1jf
#

v  6.1479 -2.1253 5.2919
v  6.1479 -3.5962 5.2919
v  6.1479 -3.5962 3.1197
v  6.1479 -2.1253 3.1197
v  6.1479 -2.0360 5.4005
v  6.1479 -3.6856 5.4005
v  6.1479 -2.0360 0.7100
v  6.1479 -2.1253 2.9907
v  6.1479 -2.1253 0.8185
v  6.1479 -3.5962 0.8185
v  6.1479 -3.6856 0.7100
v  6.1479 -3.5962 2.9907
v  5.9550 -3.6856 0.7100
v  5.9550 -2.0360 0.7100
v  5.9550 -2.0360 5.4005
v  5.9550 -3.6856 5.4005
v  -6.1425 -2.1253 5.2919
v  -6.1425 -2.1253 3.1197
v  -6.1425 -3.5962 3.1197
v  -6.1425 -3.5962 5.2919
v  -6.1425 -2.0360 5.4005
v  -6.1425 -3.6856 5.4005
v  -6.1425 -2.0360 0.7100
v  -6.1425 -2.1253 2.9907
v  -6.1425 -2.1253 0.8185
v  -6.1425 -3.5962 0.8185
v  -6.1425 -3.6856 0.7100
v  -6.1425 -3.5962 2.9907
v  -5.9364 -3.6856 0.7100
v  -5.9364 -2.0360 0.7100
v  -5.9364 -3.6856 5.4005
v  -5.9364 -2.0360 5.4005
v  6.1870 -0.7563 -7.3534
v  6.1870 -0.3317 -7.3534
v  6.1870 -0.3317 7.3705
v  6.1870 -0.7563 7.3705
v  -5.9364 -0.3317 7.1512
v  5.9550 -0.3317 7.1512
v  5.9550 -0.3317 -7.1342
v  -5.9364 -0.3317 -7.1342
v  -6.1870 -0.3317 7.3705
v  -6.1870 -0.3317 -7.3534
v  -6.1870 -0.7563 7.3705
v  -6.1870 -0.7563 -7.3534
v  5.9550 -5.7592 -7.1342
v  5.9550 -0.7563 -7.1342
v  5.9550 -0.7563 7.1512
v  5.9550 -5.7592 7.1512
v  0.3184 -5.2666 -7.1342
v  0.3184 -5.4394 -7.1342
v  -0.2997 -5.4394 -7.1342
v  -0.2997 -5.2666 -7.1342
v  -5.9364 -0.7563 7.1512
v  -5.9364 -0.7563 -7.1342
v  4.7072 -1.0916 -7.1342
v  -4.6886 -1.0916 -7.1342
v  -4.6886 -5.7673 -7.1342
v  -5.9364 -5.7592 -7.1342
v  4.7072 -5.7673 -7.1342
v  4.7072 -1.0916 -7.3704
v  4.4099 -1.3459 -7.3704
v  -4.3913 -1.3459 -7.3704
v  -4.6886 -1.0916 -7.3704
v  -4.3913 -5.7729 -7.3704
v  -4.6886 -5.7673 -7.3704
v  4.7072 -5.7673 -7.3704
v  4.4099 -5.7729 -7.3704
v  -4.3913 -1.3459 -7.1342
v  4.4099 -1.3459 -7.1342
v  -4.3913 -5.7729 -7.1342
v  4.4099 -5.7729 -7.1342
v  3.1339 -2.2355 7.1512
v  5.0788 -2.2355 7.1512
v  5.0788 -5.6002 7.1512
v  5.0788 -5.8034 7.1512
v  -5.9364 -5.7592 7.1512
v  3.1339 -5.6002 7.1512
v  3.1339 -5.8034 7.1512
v  5.0788 -5.8034 7.3544
v  5.0788 -5.6002 7.3544
v  3.1339 -5.6002 7.3544
v  3.1339 -5.8034 7.3544
v  3.3228 -4.0015 7.1512
v  4.8900 -4.0015 7.1512
v  4.8900 -2.5065 7.1512
v  3.3228 -2.5065 7.1512
v  4.4064 -4.3563 7.1512
v  4.8289 -4.3563 7.1512
v  4.8289 -4.2214 7.1512
v  4.4064 -4.2214 7.1512
v  -6.1425 -2.1253 -0.5699
v  -6.1425 -2.1253 -2.7421
v  -6.1425 -3.5962 -2.7421
v  -6.1425 -3.5962 -0.5699
v  -6.1425 -2.0360 -0.4614
v  -6.1425 -3.6856 -0.4614
v  -6.1425 -2.0360 -5.1519
v  -6.1425 -2.1253 -2.8711
v  -6.1425 -2.1253 -5.0433
v  -6.1425 -3.5962 -5.0433
v  -6.1425 -3.6856 -5.1519
v  -6.1425 -3.5962 -2.8711
v  -5.9364 -3.6856 -5.1519
v  -5.9364 -2.0360 -5.1519
v  -5.9364 -3.6856 -0.4614
v  -5.9364 -2.0360 -0.4614
v  6.1479 -2.1253 -0.5699
v  6.1479 -3.5962 -0.5699
v  6.1479 -3.5962 -2.7421
v  6.1479 -2.1253 -2.7421
v  6.1479 -2.0360 -0.4614
v  6.1479 -3.6856 -0.4614
v  6.1479 -2.0360 -5.1519
v  6.1479 -2.1253 -2.8711
v  6.1479 -2.1253 -5.0433
v  6.1479 -3.5962 -5.0433
v  6.1479 -3.6856 -5.1519
v  6.1479 -3.5962 -2.8711
v  5.9550 -3.6856 -5.1519
v  5.9550 -2.0360 -5.1519
v  5.9550 -2.0360 -0.4614
v  5.9550 -3.6856 -0.4614
v  -3.0526 -2.1253 7.3645
v  -3.0526 -3.5962 7.3645
v  -0.8803 -3.5962 7.3645
v  -0.8803 -2.1253 7.3645
v  -3.1611 -2.0360 7.3645
v  -3.1611 -3.6856 7.3645
v  1.5294 -2.0360 7.3645
v  -0.7513 -2.1253 7.3645
v  1.4209 -2.1253 7.3645
v  1.4209 -3.5962 7.3645
v  1.5294 -3.6856 7.3645
v  -0.7513 -3.5962 7.3645
v  1.5294 -3.6856 7.1512
v  1.5294 -2.0360 7.1512
v  -3.1611 -2.0360 7.1512
v  -3.1611 -3.6856 7.1512
v  -2.1649 3.2299 -5.7178
v  -2.1649 2.7972 -5.7178
v  -2.7164 2.7972 -5.7178
v  -2.7164 3.2299 -5.7178
v  -2.0484 3.3515 -5.7178
v  -2.1649 2.7450 -5.7178
v  -2.1649 2.2904 -5.7178
v  -2.0484 1.1069 -5.7178
v  -2.1649 2.1679 -5.7178
v  -2.1649 1.7128 -5.7178
v  -2.1649 1.6602 -5.7178
v  -2.1649 1.2285 -5.7178
v  -2.7164 1.2285 -5.7178
v  -3.4693 3.3515 -5.7178
v  -2.8015 3.2299 -5.7178
v  -3.3528 3.2299 -5.7178
v  -3.3528 2.7972 -5.7178
v  -3.3528 2.7450 -5.7178
v  -3.3528 2.2904 -5.7178
v  -3.4693 1.1069 -5.7178
v  -3.3528 2.1679 -5.7178
v  -3.3528 1.7128 -5.7178
v  -3.3528 1.6602 -5.7178
v  -3.3528 1.2285 -5.7178
v  -2.8015 1.2285 -5.7178
v  -2.7164 1.7128 -5.7178
v  -2.7164 2.1679 -5.7178
v  -3.4693 1.1069 -5.5125
v  -3.4693 3.3515 -5.5125
v  -2.7164 2.2904 -5.7178
v  -2.8015 2.2904 -5.7178
v  -2.8015 2.1679 -5.7178
v  -2.0484 3.3515 -5.5125
v  -2.0484 1.1069 -5.5125
v  -2.7164 2.7450 -5.7178
v  -2.8015 2.7972 -5.7178
v  -2.8015 2.7450 -5.7178
v  -2.7164 1.6602 -5.7178
v  -2.8015 1.7128 -5.7178
v  -2.8015 1.6602 -5.7178
v  3.5555 3.2299 -5.7178
v  3.5555 2.7972 -5.7178
v  3.0042 2.7972 -5.7178
v  3.0042 3.2299 -5.7178
v  3.6721 3.3515 -5.7178
v  3.5555 2.7450 -5.7178
v  3.5555 2.2904 -5.7178
v  3.6721 1.1069 -5.7178
v  3.5555 2.1679 -5.7178
v  3.5555 1.7128 -5.7178
v  3.5555 1.6602 -5.7178
v  3.5555 1.2285 -5.7178
v  3.0042 1.2285 -5.7178
v  2.2511 3.3515 -5.7178
v  2.9189 3.2299 -5.7178
v  2.3676 3.2299 -5.7178
v  2.3676 2.7972 -5.7178
v  2.3676 2.7450 -5.7178
v  2.3676 2.2904 -5.7178
v  2.2511 1.1069 -5.7178
v  2.3676 2.1679 -5.7178
v  2.3676 1.7128 -5.7178
v  2.3676 1.6602 -5.7178
v  2.3676 1.2285 -5.7178
v  2.9189 1.2285 -5.7178
v  3.0042 1.7128 -5.7178
v  3.0042 2.1679 -5.7178
v  2.2511 1.1069 -5.5125
v  2.2511 3.3515 -5.5125
v  3.0042 2.2904 -5.7178
v  2.9189 2.2904 -5.7178
v  2.9189 2.1679 -5.7178
v  3.6721 3.3515 -5.5125
v  3.6721 1.1069 -5.5125
v  3.0042 2.7450 -5.7178
v  2.9189 2.7972 -5.7178
v  2.9189 2.7450 -5.7178
v  3.0042 1.6602 -5.7178
v  2.9189 1.7128 -5.7178
v  2.9189 1.6602 -5.7178
v  -5.1301 -0.4084 -6.4629
v  -5.1301 -0.4084 6.4241
v  -5.1301 5.2849 -0.0194
v  -5.5685 -0.3464 6.8841
v  0.4370 -0.3464 6.8841
v  0.4370 5.8034 -0.0194
v  -5.5685 5.8034 -0.0194
v  5.8253 -0.3464 6.8841
v  5.8253 5.8034 -0.0194
v  0.4370 -0.3464 -6.9230
v  -5.5685 -0.3464 -6.9230
v  5.8253 -0.3464 -6.9230
v  -5.5685 5.2849 -0.0194
v  -5.5685 -0.4084 6.4241
v  -5.5685 -0.4084 -6.4629
v  5.3871 -0.4084 -6.4629
v  5.3871 5.2849 -0.0194
v  5.3871 -0.4084 6.4241
v  5.8253 -0.4084 6.4241
v  5.8253 5.2849 -0.0194
v  5.8253 -0.4084 -6.4629
v  -2.7471 4.9747 -5.5457
v  -1.6156 3.9057 -5.5457
v  -3.8783 3.9057 -5.5457
v  -4.3826 3.8933 -2.1515
v  -2.7471 5.4568 -0.4078
v  -2.7471 5.4568 -5.8401
v  -4.3826 3.8933 -5.8401
v  -1.1113 3.8933 -5.8401
v  -1.1113 3.8933 -2.1515
v  -2.7471 4.9747 -5.8401
v  -3.8783 3.9057 -5.8401
v  -1.6156 3.9057 -5.8401
v  2.9510 4.9747 -5.5457
v  4.0822 3.9057 -5.5457
v  1.8195 3.9057 -5.5457
v  1.3152 3.8933 -2.1515
v  2.9510 5.4568 -0.4078
v  2.9510 5.4568 -5.8401
v  1.3152 3.8933 -5.8401
v  4.5867 3.8933 -5.8401
v  4.5867 3.8933 -2.1515
v  2.9510 4.9747 -5.8401
v  1.8195 3.9057 -5.8401
v  4.0822 3.9057 -5.8401
v  -0.9950 3.9051 -2.1579
v  -0.9950 3.9051 -5.9398
v  -4.4704 3.9051 -5.9398
v  -4.4704 3.9051 -2.1579
v  -1.2825 3.5566 -5.6152
v  -1.2825 0.8171 -5.6152
v  -4.1830 0.8171 -5.6152
v  -4.1830 3.5566 -5.6152
v  -1.2825 3.5566 -2.5413
v  -4.1830 3.5566 -2.5413
v  -4.4704 3.5566 -2.5383
v  -4.4704 3.5566 -5.9398
v  -0.9950 3.5566 -5.9398
v  -0.9950 3.5566 -2.5383
v  4.7061 3.9051 -2.1579
v  4.7061 3.9051 -5.9398
v  1.2308 3.9051 -5.9398
v  1.2308 3.9051 -2.1579
v  4.4187 3.5566 -5.6152
v  4.4187 0.8171 -5.6152
v  1.5182 0.8171 -5.6152
v  1.5182 3.5566 -5.6152
v  4.4187 3.5566 -2.5413
v  1.5182 3.5566 -2.5413
v  1.2308 3.5566 -2.5383
v  1.2308 3.5566 -5.9398
v  4.7061 3.5566 -5.9398
v  4.7061 3.5566 -2.5383
# 291 vertices

vn 1.0000 0.0000 -0.0000
vn 0.0000 0.0000 -1.0000
vn 0.0000 0.0000 1.0000
vn 0.0000 1.0000 -0.0000
vn 0.0000 -1.0000 -0.0000
vn -1.0000 0.0000 -0.0000
vn 0.0000 -0.0000 1.0000
vn 0.0000 -0.0001 1.0000
vn -0.0000 0.0000 1.0000
vn 0.0000 0.7467 0.6652
vn 0.0000 0.7467 -0.6652
vn 0.0000 -0.7494 -0.6621
vn 0.0000 -0.7494 0.6621
vn -0.6910 0.7229 -0.0000
vn 0.6910 0.7229 -0.0000
vn 0.6868 -0.7268 -0.0000
vn -0.6868 -0.7268 -0.0000
# 17 vertex normals

vt 0.1360 0.4760 0.0000
vt 0.3587 0.0661 0.0000
vt 0.3289 0.0632 0.0000
vt 0.4189 0.0642 0.0000
vt 0.3352 0.0605 0.0000
vt 0.2980 0.0632 0.0000
vt 0.2639 0.4789 0.0000
vt 0.3355 0.4778 0.0000
vt 0.3008 0.4789 0.0000
vt 0.2406 0.4431 0.0000
vt 0.2051 0.4771 0.0000
vt 0.2325 0.4789 0.0000
vt 0.2988 0.4431 0.0000
vt 0.3593 0.4762 0.0000
vt 0.3892 0.4762 0.0000
vt 0.2647 0.4788 0.0000
vt 0.3244 0.4779 0.0000
vt 0.2298 0.4805 0.0000
vt 0.2592 0.0841 0.0000
vt 0.1727 0.4855 0.0000
vt 0.2349 0.4884 0.0000
vt 0.1342 0.4772 0.0000
vt 0.3275 0.4809 0.0000
vt 0.1739 0.3568 0.0000
vt 0.1433 0.4760 0.0000
vt 0.3261 0.4790 0.0000
vt 0.2665 0.4852 0.0000
vt 0.2337 0.4811 0.0000
vt 0.2676 0.4431 0.0000
vt 0.4199 0.0631 0.0000
vt 0.4166 0.0629 0.0000
vt 0.2590 0.4431 0.0000
vt 0.2628 0.2668 0.0000
vt 0.2931 0.2681 0.0000
vt 0.2378 0.2668 0.0000
vt 0.2062 0.2668 0.0000
vt 0.2297 0.4431 0.0000
vt 0.2986 0.2625 0.0000
vt 0.2595 0.2648 0.0000
vt 0.3320 0.4763 0.0000
vt 0.2975 0.4431 0.0000
vt 0.2584 0.4431 0.0000
vt 0.2308 0.4763 0.0000
vt 0.2618 0.4797 0.0000
vt 0.2940 0.4717 0.0000
# 45 texture coords

g 1jf
s 1
f 1/1/1 2/1/1 3/1/1 
f 1/1/1 3/1/1 4/1/1 
f 5/2/1 1/2/1 4/2/1 
f 6/2/1 1/2/1 5/2/1 
f 6/2/1 2/2/1 1/2/1 
f 6/2/1 3/2/1 2/2/1 
f 4/2/1 7/2/1 5/2/1 
f 4/2/1 8/2/1 7/2/1 
f 8/2/1 9/2/1 7/2/1 
f 10/2/1 7/2/1 9/2/1 
f 10/2/1 11/2/1 7/2/1 
f 11/2/1 3/2/1 6/2/1 
f 11/2/1 10/2/1 12/2/1 
f 11/2/1 12/2/1 3/2/1 
f 13/3/2 14/3/2 7/3/2 
f 13/3/2 7/3/2 11/3/2 
f 6/3/3 5/3/3 15/3/3 
f 6/3/3 15/3/3 16/3/3 
f 8/1/1 12/1/1 10/1/1 
f 8/1/1 10/1/1 9/1/1 
f 15/4/4 5/4/4 7/4/4 
f 15/4/4 7/4/4 14/4/4 
f 4/5/1 3/5/1 12/5/1 
f 4/5/1 12/5/1 8/5/1 
f 16/6/5 13/6/5 11/6/5 
f 16/6/5 11/6/5 6/6/5 
f 17/1/6 18/1/6 19/1/6 
f 17/1/6 19/1/6 20/1/6 
f 21/2/6 18/2/6 17/2/6 
f 22/2/6 21/2/6 17/2/6 
f 22/2/6 17/2/6 20/2/6 
f 22/2/6 20/2/6 19/2/6 
f 18/2/6 21/2/6 23/2/6 
f 18/2/6 23/2/6 24/2/6 
f 24/2/6 23/2/6 25/2/6 
f 26/2/6 25/2/6 23/2/6 
f 26/2/6 23/2/6 27/2/6 
f 27/2/6 22/2/6 19/2/6 
f 27/2/6 28/2/6 26/2/6 
f 27/2/6 19/2/6 28/2/6 
f 29/3/2 27/3/2 23/3/2 
f 29/3/2 23/3/2 30/3/2 
f 22/3/3 31/3/3 32/3/3 
f 22/3/3 32/3/3 21/3/3 
f 24/1/6 25/1/6 26/1/6 
f 24/1/6 26/1/6 28/1/6 
f 32/4/4 30/4/4 23/4/4 
f 32/4/4 23/4/4 21/4/4 
f 18/5/6 24/5/6 28/5/6 
f 18/5/6 28/5/6 19/5/6 
f 31/6/5 22/6/5 27/6/5 
f 31/6/5 27/6/5 29/6/5 
f 33/7/1 34/7/1 35/7/1 
f 33/7/1 35/7/1 36/7/1 
f 37/8/4 38/8/4 39/8/4 
f 37/8/4 39/8/4 40/8/4 
f 38/8/4 34/8/4 39/8/4 
f 38/8/4 35/8/4 34/8/4 
f 37/8/4 35/8/4 38/8/4 
f 37/8/4 41/8/4 35/8/4 
f 39/8/4 34/8/4 42/8/4 
f 39/8/4 42/8/4 40/8/4 
f 41/9/3 43/9/3 36/9/3 
f 41/9/3 36/9/3 35/9/3 
f 34/9/2 33/9/2 44/9/2 
f 34/9/2 44/9/2 42/9/2 
f 45/10/1 46/10/1 47/10/1 
f 45/10/1 47/10/1 48/10/1 
f 49/11/2 50/11/2 51/11/2 
f 49/11/2 51/11/2 52/11/2 
f 46/12/5 33/12/5 36/12/5 
f 46/12/5 36/12/5 47/12/5 
f 47/12/5 36/12/5 43/12/5 
f 47/12/5 43/12/5 53/12/5 
f 54/12/5 33/12/5 46/12/5 
f 54/12/5 44/12/5 33/12/5 
f 46/13/2 55/13/2 56/13/2 
f 46/13/2 56/13/2 54/13/2 
f 54/13/2 56/13/2 57/13/2 
f 54/13/2 57/13/2 58/13/2 
f 45/13/2 55/13/2 46/13/2 
f 45/13/2 59/13/2 55/13/2 
f 60/14/2 61/14/2 62/14/2 
f 60/14/2 62/14/2 63/14/2 
f 63/14/2 62/14/2 64/14/2 
f 63/14/2 64/14/2 65/14/2 
f 66/14/2 61/14/2 60/14/2 
f 66/14/2 67/14/2 61/14/2 
f 55/15/4 60/15/4 63/15/4 
f 55/15/4 63/15/4 56/15/4 
f 68/16/5 62/16/5 61/16/5 
f 68/16/5 61/16/5 69/16/5 
f 56/17/6 63/17/6 65/17/6 
f 56/17/6 65/17/6 57/17/6 
f 70/18/1 64/18/1 62/18/1 
f 70/18/1 62/18/1 68/18/1 
f 59/17/1 66/17/1 60/17/1 
f 59/17/1 60/17/1 55/17/1 
f 69/18/6 61/18/6 67/18/6 
f 69/18/6 67/18/6 71/18/6 
f 69/19/2 49/19/2 52/19/2 
f 69/19/2 52/19/2 68/19/2 
f 68/19/2 52/19/2 51/19/2 
f 68/19/2 51/19/2 70/19/2 
f 70/19/2 51/19/2 50/19/2 
f 70/19/2 50/19/2 71/19/2 
f 71/19/2 50/19/2 49/19/2 
f 71/19/2 49/19/2 69/19/2 
f 53/13/3 72/13/3 73/13/3 
f 53/13/3 73/13/3 47/13/3 
f 47/13/3 73/13/3 74/13/7 
f 47/13/3 74/13/7 48/13/7 
f 74/13/7 75/13/8 48/13/7 
f 76/13/7 72/13/3 53/13/3 
f 76/13/7 77/13/7 72/13/3 
f 76/13/7 78/13/8 77/13/7 
f 79/20/3 80/20/3 81/20/3 
f 79/20/3 81/20/3 82/20/3 
f 81/21/4 80/21/4 74/21/4 
f 81/21/4 74/21/4 77/21/4 
f 83/22/3 84/22/3 85/22/3 
f 83/22/3 85/22/3 86/22/3 
f 87/23/3 88/23/3 89/23/3 
f 87/23/3 89/23/3 90/23/3 
f 83/24/3 86/24/3 72/24/3 
f 83/24/3 72/24/3 77/24/7 
f 86/24/3 73/24/9 72/24/3 
f 86/24/3 85/24/3 73/24/9 
f 73/24/9 85/24/3 84/24/3 
f 73/24/9 84/24/3 74/24/7 
f 77/24/7 74/24/7 88/24/3 
f 84/24/3 88/24/3 74/24/7 
f 77/24/7 88/24/3 87/24/3 
f 77/24/7 87/24/3 90/24/3 
f 77/24/7 90/24/3 83/24/3 
f 90/24/3 84/24/3 83/24/3 
f 90/24/3 89/24/3 84/24/3 
f 84/24/3 89/24/3 88/24/3 
f 80/25/1 79/25/1 75/25/1 
f 80/25/1 75/25/1 74/25/1 
f 77/25/6 78/25/6 82/25/6 
f 77/25/6 82/25/6 81/25/6 
f 37/26/4 40/26/4 42/26/4 
f 37/26/4 42/26/4 41/26/4 
f 44/27/6 43/27/6 41/27/6 
f 44/27/6 41/27/6 42/27/6 
f 43/28/5 44/28/5 54/28/5 
f 43/28/5 54/28/5 53/28/5 
f 58/29/6 76/29/6 53/29/6 
f 58/29/6 53/29/6 54/29/6 
f 91/1/6 92/1/6 93/1/6 
f 91/1/6 93/1/6 94/1/6 
f 95/2/6 92/2/6 91/2/6 
f 96/2/6 95/2/6 91/2/6 
f 96/2/6 91/2/6 94/2/6 
f 96/2/6 94/2/6 93/2/6 
f 92/2/6 95/2/6 97/2/6 
f 92/2/6 97/2/6 98/2/6 
f 98/2/6 97/2/6 99/2/6 
f 100/2/6 99/2/6 97/2/6 
f 100/2/6 97/2/6 101/2/6 
f 101/2/6 96/2/6 93/2/6 
f 101/2/6 102/2/6 100/2/6 
f 101/2/6 93/2/6 102/2/6 
f 103/3/2 101/3/2 97/3/2 
f 103/3/2 97/3/2 104/3/2 
f 96/3/3 105/3/3 106/3/3 
f 96/3/3 106/3/3 95/3/3 
f 98/1/6 99/1/6 100/1/6 
f 98/1/6 100/1/6 102/1/6 
f 106/4/4 104/4/4 97/4/4 
f 106/4/4 97/4/4 95/4/4 
f 92/5/6 98/5/6 102/5/6 
f 92/5/6 102/5/6 93/5/6 
f 105/6/5 96/6/5 101/6/5 
f 105/6/5 101/6/5 103/6/5 
f 107/1/1 108/1/1 109/1/1 
f 107/1/1 109/1/1 110/1/1 
f 111/2/1 107/2/1 110/2/1 
f 112/2/1 107/2/1 111/2/1 
f 112/2/1 108/2/1 107/2/1 
f 112/2/1 109/2/1 108/2/1 
f 110/2/1 113/2/1 111/2/1 
f 110/2/1 114/2/1 113/2/1 
f 114/2/1 115/2/1 113/2/1 
f 116/2/1 113/2/1 115/2/1 
f 116/2/1 117/2/1 113/2/1 
f 117/2/1 109/2/1 112/2/1 
f 117/2/1 116/2/1 118/2/1 
f 117/2/1 118/2/1 109/2/1 
f 119/3/2 120/3/2 113/3/2 
f 119/3/2 113/3/2 117/3/2 
f 112/3/3 111/3/3 121/3/3 
f 112/3/3 121/3/3 122/3/3 
f 114/1/1 118/1/1 116/1/1 
f 114/1/1 116/1/1 115/1/1 
f 121/4/4 111/4/4 113/4/4 
f 121/4/4 113/4/4 120/4/4 
f 110/5/1 109/5/1 118/5/1 
f 110/5/1 118/5/1 114/5/1 
f 122/6/5 119/6/5 117/6/5 
f 122/6/5 117/6/5 112/6/5 
f 123/1/3 124/1/3 125/1/3 
f 123/1/3 125/1/3 126/1/3 
f 127/2/3 123/2/3 126/2/3 
f 128/2/3 123/2/3 127/2/3 
f 128/2/3 124/2/3 123/2/3 
f 128/2/3 125/2/3 124/2/3 
f 126/2/3 129/2/3 127/2/3 
f 126/2/3 130/2/3 129/2/3 
f 130/2/3 131/2/3 129/2/3 
f 132/2/3 129/2/3 131/2/3 
f 132/2/3 133/2/3 129/2/3 
f 133/2/3 125/2/3 128/2/3 
f 133/2/3 132/2/3 134/2/3 
f 133/2/3 134/2/3 125/2/3 
f 135/3/1 136/3/1 129/3/1 
f 135/3/1 129/3/1 133/3/1 
f 128/3/6 127/3/6 137/3/6 
f 128/3/6 137/3/6 138/3/6 
f 130/1/3 134/1/3 132/1/3 
f 130/1/3 132/1/3 131/1/3 
f 137/4/4 127/4/4 129/4/4 
f 137/4/4 129/4/4 136/4/4 
f 126/5/3 125/5/3 134/5/3 
f 126/5/3 134/5/3 130/5/3 
f 138/6/5 135/6/5 133/6/5 
f 138/6/5 133/6/5 128/6/5 
f 139/1/2 140/1/2 141/1/2 
f 139/1/2 141/1/2 142/1/2 
f 143/2/2 139/2/2 142/2/2 
f 143/2/2 140/2/2 139/2/2 
f 143/2/2 144/2/2 140/2/2 
f 143/2/2 145/2/2 144/2/2 
f 146/2/2 145/2/2 143/2/2 
f 146/2/2 147/2/2 145/2/2 
f 146/2/2 148/2/2 147/2/2 
f 146/2/2 149/2/2 148/2/2 
f 146/2/2 150/2/2 149/2/2 
f 146/2/2 151/2/2 150/2/2 
f 142/2/2 152/2/2 143/2/2 
f 142/2/2 153/2/2 152/2/2 
f 153/2/2 154/2/2 152/2/2 
f 152/2/2 154/2/2 155/2/2 
f 152/2/2 155/2/2 156/2/2 
f 152/2/2 156/2/2 157/2/2 
f 157/2/2 158/2/2 152/2/2 
f 158/2/2 151/2/2 146/2/2 
f 157/2/2 159/2/2 158/2/2 
f 159/2/2 160/2/2 158/2/2 
f 160/2/2 161/2/2 158/2/2 
f 161/2/2 162/2/2 158/2/2 
f 158/2/2 162/2/2 163/2/2 
f 158/2/2 163/2/2 151/2/2 
f 147/1/2 148/1/2 164/1/2 
f 147/1/2 164/1/2 165/1/2 
f 166/3/6 167/3/6 152/3/6 
f 166/3/6 152/3/6 158/3/6 
f 145/30/2 147/30/2 165/30/2 
f 145/30/2 165/30/2 168/30/2 
f 165/30/2 169/30/2 168/30/2 
f 165/30/2 170/30/2 169/30/2 
f 170/30/2 157/30/2 169/30/2 
f 170/30/2 159/30/2 157/30/2 
f 146/3/1 143/3/1 171/3/1 
f 146/3/1 171/3/1 172/3/1 
f 144/1/2 145/1/2 168/1/2 
f 144/1/2 168/1/2 173/1/2 
f 140/31/2 144/31/2 173/31/2 
f 140/31/2 173/31/2 141/31/2 
f 173/31/2 174/31/2 141/31/2 
f 141/31/2 174/31/2 153/31/2 
f 141/31/2 153/31/2 142/31/2 
f 173/31/2 175/31/2 174/31/2 
f 175/31/2 155/31/2 174/31/2 
f 175/31/2 156/31/2 155/31/2 
f 168/31/2 175/31/2 173/31/2 
f 168/31/2 169/31/2 175/31/2 
f 149/1/2 150/1/2 151/1/2 
f 149/1/2 151/1/2 176/1/2 
f 148/31/2 149/31/2 176/31/2 
f 148/31/2 176/31/2 164/31/2 
f 176/31/2 177/31/2 164/31/2 
f 164/31/2 177/31/2 170/31/2 
f 164/31/2 170/31/2 165/31/2 
f 176/31/2 178/31/2 177/31/2 
f 178/31/2 160/31/2 177/31/2 
f 178/31/2 161/31/2 160/31/2 
f 151/31/2 178/31/2 176/31/2 
f 151/31/2 163/31/2 178/31/2 
f 174/1/2 155/1/2 154/1/2 
f 174/1/2 154/1/2 153/1/2 
f 169/1/2 157/1/2 156/1/2 
f 169/1/2 156/1/2 175/1/2 
f 177/1/2 160/1/2 159/1/2 
f 177/1/2 159/1/2 170/1/2 
f 163/1/2 162/1/2 161/1/2 
f 163/1/2 161/1/2 178/1/2 
f 171/4/4 143/4/4 152/4/4 
f 171/4/4 152/4/4 167/4/4 
f 172/6/5 166/6/5 158/6/5 
f 172/6/5 158/6/5 146/6/5 
f 179/1/2 180/1/2 181/1/2 
f 179/1/2 181/1/2 182/1/2 
f 183/2/2 179/2/2 182/2/2 
f 183/2/2 180/2/2 179/2/2 
f 183/2/2 184/2/2 180/2/2 
f 183/2/2 185/2/2 184/2/2 
f 186/2/2 185/2/2 183/2/2 
f 186/2/2 187/2/2 185/2/2 
f 186/2/2 188/2/2 187/2/2 
f 186/2/2 189/2/2 188/2/2 
f 186/2/2 190/2/2 189/2/2 
f 186/2/2 191/2/2 190/2/2 
f 182/2/2 192/2/2 183/2/2 
f 182/2/2 193/2/2 192/2/2 
f 193/2/2 194/2/2 192/2/2 
f 192/2/2 194/2/2 195/2/2 
f 192/2/2 195/2/2 196/2/2 
f 192/2/2 196/2/2 197/2/2 
f 197/2/2 198/2/2 192/2/2 
f 198/2/2 191/2/2 186/2/2 
f 197/2/2 199/2/2 198/2/2 
f 199/2/2 200/2/2 198/2/2 
f 200/2/2 201/2/2 198/2/2 
f 201/2/2 202/2/2 198/2/2 
f 198/2/2 202/2/2 203/2/2 
f 198/2/2 203/2/2 191/2/2 
f 187/1/2 188/1/2 204/1/2 
f 187/1/2 204/1/2 205/1/2 
f 206/3/6 207/3/6 192/3/6 
f 206/3/6 192/3/6 198/3/6 
f 185/30/2 187/30/2 205/30/2 
f 185/30/2 205/30/2 208/30/2 
f 205/30/2 209/30/2 208/30/2 
f 205/30/2 210/30/2 209/30/2 
f 210/30/2 197/30/2 209/30/2 
f 210/30/2 199/30/2 197/30/2 
f 186/3/1 183/3/1 211/3/1 
f 186/3/1 211/3/1 212/3/1 
f 184/1/2 185/1/2 208/1/2 
f 184/1/2 208/1/2 213/1/2 
f 180/31/2 184/31/2 213/31/2 
f 180/31/2 213/31/2 181/31/2 
f 213/31/2 214/31/2 181/31/2 
f 181/31/2 214/31/2 193/31/2 
f 181/31/2 193/31/2 182/31/2 
f 213/31/2 215/31/2 214/31/2 
f 215/31/2 195/31/2 214/31/2 
f 215/31/2 196/31/2 195/31/2 
f 208/31/2 215/31/2 213/31/2 
f 208/31/2 209/31/2 215/31/2 
f 189/1/2 190/1/2 191/1/2 
f 189/1/2 191/1/2 216/1/2 
f 188/31/2 189/31/2 216/31/2 
f 188/31/2 216/31/2 204/31/2 
f 216/31/2 217/31/2 204/31/2 
f 204/31/2 217/31/2 210/31/2 
f 204/31/2 210/31/2 205/31/2 
f 216/31/2 218/31/2 217/31/2 
f 218/31/2 200/31/2 217/31/2 
f 218/31/2 201/31/2 200/31/2 
f 191/31/2 218/31/2 216/31/2 
f 191/31/2 203/31/2 218/31/2 
f 214/1/2 195/1/2 194/1/2 
f 214/1/2 194/1/2 193/1/2 
f 209/1/2 197/1/2 196/1/2 
f 209/1/2 196/1/2 215/1/2 
f 217/1/2 200/1/2 199/1/2 
f 217/1/2 199/1/2 210/1/2 
f 203/1/2 202/1/2 201/1/2 
f 203/1/2 201/1/2 218/1/2 
f 211/4/4 183/4/4 192/4/4 
f 211/4/4 192/4/4 207/4/4 
f 212/6/5 206/6/5 198/6/5 
f 212/6/5 198/6/5 186/6/5 
f 219/32/6 220/32/6 221/32/6 
f 222/33/10 223/33/10 224/33/10 
f 222/33/10 224/33/10 225/33/10 
f 226/33/10 224/33/10 223/33/10 
f 226/33/10 227/33/10 224/33/10 
f 228/34/11 229/34/11 225/34/11 
f 228/34/11 225/34/11 224/34/11 
f 228/34/11 224/34/11 227/34/11 
f 228/34/11 227/34/11 230/34/11 
f 222/35/6 225/35/6 231/35/6 
f 222/35/6 231/35/6 232/35/6 
f 225/35/6 233/35/6 231/35/6 
f 225/35/6 229/35/6 233/35/6 
f 232/36/12 231/36/12 221/36/12 
f 232/36/12 221/36/12 220/36/12 
f 231/36/13 233/36/13 219/36/13 
f 231/36/13 219/36/13 221/36/13 
f 234/32/1 235/32/1 236/32/1 
f 226/35/1 237/35/1 238/35/1 
f 226/35/1 238/35/1 227/35/1 
f 227/35/1 238/35/1 239/35/1 
f 227/35/1 239/35/1 230/35/1 
f 237/36/12 236/36/12 235/36/12 
f 237/36/12 235/36/12 238/36/12 
f 238/36/13 235/36/13 234/36/13 
f 238/36/13 234/36/13 239/36/13 
f 240/37/2 241/37/2 242/37/2 
f 243/38/14 244/38/14 245/38/14 
f 243/38/14 245/38/14 246/38/14 
f 247/38/15 245/38/15 244/38/15 
f 247/38/15 244/38/15 248/38/15 
f 245/39/2 249/39/2 250/39/2 
f 245/39/2 250/39/2 246/39/2 
f 247/39/2 249/39/2 245/39/2 
f 247/39/2 251/39/2 249/39/2 
f 249/38/16 240/38/16 242/38/16 
f 249/38/16 242/38/16 250/38/16 
f 251/38/17 241/38/17 240/38/17 
f 251/38/17 240/38/17 249/38/17 
f 252/37/2 253/37/2 254/37/2 
f 255/38/14 256/38/14 257/38/14 
f 255/38/14 257/38/14 258/38/14 
f 259/38/15 257/38/15 256/38/15 
f 259/38/15 256/38/15 260/38/15 
f 257/39/2 261/39/2 262/39/2 
f 257/39/2 262/39/2 258/39/2 
f 259/39/2 261/39/2 257/39/2 
f 259/39/2 263/39/2 261/39/2 
f 261/38/16 252/38/16 254/38/16 
f 261/38/16 254/38/16 262/38/16 
f 263/38/17 253/38/17 252/38/17 
f 263/38/17 252/38/17 261/38/17 
f 264/40/4 265/40/4 266/40/4 
f 264/40/4 266/40/4 267/40/4 
f 268/41/2 269/41/2 270/41/2 
f 268/41/2 270/41/2 271/41/2 
f 269/42/1 268/42/1 272/42/1 
f 273/43/5 274/43/5 275/43/5 
f 273/43/5 275/43/5 271/43/5 
f 271/43/5 275/43/5 276/43/5 
f 271/43/5 276/43/5 268/43/5 
f 268/43/5 276/43/5 277/43/5 
f 268/43/5 277/43/5 272/43/5 
f 274/44/6 267/44/6 266/44/6 
f 274/44/6 266/44/6 275/44/6 
f 275/45/2 266/45/2 265/45/2 
f 275/45/2 265/45/2 276/45/2 
f 276/44/1 265/44/1 264/44/1 
f 276/44/1 264/44/1 277/44/1 
f 278/40/4 279/40/4 280/40/4 
f 278/40/4 280/40/4 281/40/4 
f 282/41/2 283/41/2 284/41/2 
f 282/41/2 284/41/2 285/41/2 
f 283/42/1 282/42/1 286/42/1 
f 287/43/5 288/43/5 289/43/5 
f 287/43/5 289/43/5 285/43/5 
f 285/43/5 289/43/5 290/43/5 
f 285/43/5 290/43/5 282/43/5 
f 282/43/5 290/43/5 291/43/5 
f 282/43/5 291/43/5 286/43/5 
f 288/44/6 281/44/6 280/44/6 
f 288/44/6 280/44/6 289/44/6 
f 289/45/2 280/45/2 279/45/2 
f 289/45/2 279/45/2 290/45/2 
f 290/44/1 279/44/1 278/44/1 
f 290/44/1 278/44/1 291/44/1 
f 273/42/6 271/42/6 270/42/6 
f 287/42/6 285/42/6 284/42/6 
# 464 faces

