# 3ds Max Wavefront OBJ Exporter v0.97b - (c)2007 guruware
# 创建的文件:19.09.2017 09:20:15

#
# object Box001
#

v  -3.5171 -5.4495 9.1380
v  -3.5171 -5.4495 -9.1380
v  1.6879 -6.0434 -9.1380
v  1.6879 -6.0434 9.1380
v  -1.6880 10.5827 9.1380
v  3.5171 9.9888 9.1380
v  3.5171 9.9888 -9.1380
v  -1.6880 10.5827 -9.1380
v  -2.4700 -10.5827 5.4211
v  -2.4700 -10.5827 -5.0299
v  0.5971 -10.5827 -5.0299
v  0.5971 -10.5827 5.4211
v  -2.4700 -5.8408 5.4211
v  0.5971 -5.8408 5.4211
v  0.5971 -5.8408 -5.0299
v  -2.4700 -5.8408 -5.0299
# 16 vertices

vn -0.1134 -0.9936 -0.0000
vn 0.1134 0.9936 -0.0000
vn 0.0000 0.0000 1.0000
vn 0.9936 -0.1134 -0.0000
vn 0.0000 0.0000 -1.0000
vn -0.9936 0.1134 -0.0000
vn 0.0000 -1.0000 -0.0000
vn 0.0000 1.0000 -0.0000
vn 1.0000 0.0000 -0.0000
vn -1.0000 0.0000 -0.0000
# 10 vertex normals

vt 0.9498 0.0255 0.0000
vt 0.9498 0.2420 0.0000
vt 0.7333 0.2420 0.0000
vt 0.7333 0.0255 0.0000
vt 0.0290 0.5948 0.0000
vt 0.4073 0.5948 0.0000
vt 0.4073 0.9731 0.0000
vt 0.0290 0.9731 0.0000
# 8 texture coords

g Box001
s 2
f 1/1/1 2/2/1 3/3/1 
f 3/3/1 4/4/1 1/1/1 
s 4
f 5/4/2 6/1/2 7/2/2 
f 7/2/2 8/3/2 5/4/2 
s 8
f 1/4/3 4/1/3 6/2/3 
f 6/2/3 5/3/3 1/4/3 
s 16
f 4/4/4 3/1/4 7/2/4 
f 7/2/4 6/3/4 4/4/4 
s 32
f 3/4/5 2/1/5 8/2/5 
f 8/2/5 7/3/5 3/4/5 
s 64
f 2/5/6 1/6/6 5/7/6 
f 5/7/6 8/8/6 2/5/6 
s 2
f 9/1/7 10/2/7 11/3/7 
f 11/3/7 12/4/7 9/1/7 
s 4
f 13/4/8 14/1/8 15/2/8 
f 15/2/8 16/3/8 13/4/8 
s 8
f 9/4/3 12/1/3 14/2/3 
f 14/2/3 13/3/3 9/4/3 
s 16
f 12/4/9 11/1/9 15/2/9 
f 15/2/9 14/3/9 12/4/9 
s 32
f 11/4/5 10/1/5 16/2/5 
f 16/2/5 15/3/5 11/4/5 
s 64
f 10/4/10 9/1/10 13/2/10 
f 13/2/10 16/3/10 10/4/10 
# 24 faces

